<svg width="1280" height="360" viewBox="0 0 1280 360" fill="none" xmlns="http://www.w3.org/2000/svg" role="img" aria-labelledby="title desc">
  <title id="title">Muhammad Yazid Hazami Profile Banner</title>
  <desc id="desc">Premium glass-inspired banner in navy, blue, cyan, and teal with the name Muhammad Yazid Hazami and the subtitle Software Engineer, UI/UX.</desc>
  <defs>
    <linearGradient id="bg" x1="82" y1="28" x2="1182" y2="334" gradientUnits="userSpaceOnUse">
      <stop offset="0" stop-color="#07101F"/>
      <stop offset="0.48" stop-color="#0B2243"/>
      <stop offset="1" stop-color="#0C4F5C"/>
    </linearGradient>
    <linearGradient id="panel" x1="114" y1="72" x2="786" y2="292" gradientUnits="userSpaceOnUse">
      <stop stop-color="white" stop-opacity="0.18"/>
      <stop offset="1" stop-color="white" stop-opacity="0.06"/>
    </linearGradient>
    <linearGradient id="panelStroke" x1="146" y1="74" x2="1080" y2="296" gradientUnits="userSpaceOnUse">
      <stop stop-color="white" stop-opacity="0.32"/>
      <stop offset="1" stop-color="#8BE9FF" stop-opacity="0.14"/>
    </linearGradient>
    <linearGradient id="tagFill" x1="0" y1="0" x2="1" y2="1">
      <stop stop-color="white" stop-opacity="0.16"/>
      <stop offset="1" stop-color="white" stop-opacity="0.06"/>
    </linearGradient>
    <linearGradient id="floatGlass" x1="918" y1="102" x2="1128" y2="230" gradientUnits="userSpaceOnUse">
      <stop stop-color="white" stop-opacity="0.12"/>
      <stop offset="1" stop-color="white" stop-opacity="0.04"/>
    </linearGradient>
    <linearGradient id="floatStroke" x1="904" y1="96" x2="1146" y2="246" gradientUnits="userSpaceOnUse">
      <stop stop-color="white" stop-opacity="0.18"/>
      <stop offset="1" stop-color="#8BE9FF" stop-opacity="0.08"/>
    </linearGradient>
    <radialGradient id="glowA" cx="0" cy="0" r="1" gradientUnits="userSpaceOnUse" gradientTransform="translate(1032 94) rotate(131.982) scale(360.11 233.933)">
      <stop stop-color="#60A5FA" stop-opacity="0.34"/>
      <stop offset="1" stop-color="#60A5FA" stop-opacity="0"/>
    </radialGradient>
    <radialGradient id="glowB" cx="0" cy="0" r="1" gradientUnits="userSpaceOnUse" gradientTransform="translate(1000 286) rotate(-176.669) scale(512.871 189.488)">
      <stop stop-color="#22D3EE" stop-opacity="0.24"/>
      <stop offset="1" stop-color="#22D3EE" stop-opacity="0"/>
    </radialGradient>
    <radialGradient id="glowC" cx="0" cy="0" r="1" gradientUnits="userSpaceOnUse" gradientTransform="translate(234 72) rotate(38.7717) scale(270.898 185.871)">
      <stop stop-color="#2DD4BF" stop-opacity="0.18"/>
      <stop offset="1" stop-color="#2DD4BF" stop-opacity="0"/>
    </radialGradient>
  </defs>

  <rect width="1280" height="360" rx="28" fill="url(#bg)"/>
  <circle cx="1044" cy="102" r="176" fill="url(#glowA)"/>
  <circle cx="974" cy="292" r="238" fill="url(#glowB)"/>
  <circle cx="252" cy="86" r="146" fill="url(#glowC)"/>

  <rect x="62" y="50" width="1156" height="260" rx="30" fill="white" fill-opacity="0.03"/>
  <rect x="62.5" y="50.5" width="1155" height="259" rx="29.5" stroke="white" stroke-opacity="0.08"/>
  <rect x="950" y="98" width="166" height="92" rx="30" fill="url(#floatGlass)"/>
  <rect x="950.5" y="98.5" width="165" height="91" rx="29.5" stroke="url(#floatStroke)"/>
  <rect x="1020" y="206" width="96" height="44" rx="22" fill="white" fill-opacity="0.05"/>
  <rect x="1020.5" y="206.5" width="95" height="43" rx="21.5" stroke="white" stroke-opacity="0.08"/>
  <circle cx="1084" cy="132" r="36" fill="white" fill-opacity="0.04"/>
  <path d="M1104 112C1124 124 1140 142 1154 164" stroke="white" stroke-opacity="0.12" stroke-width="2" stroke-linecap="round"/>
  <path d="M1076 218C1094 224 1108 234 1120 248" stroke="white" stroke-opacity="0.08" stroke-width="2" stroke-linecap="round"/>

  <rect x="92" y="72" width="744" height="214" rx="28" fill="url(#panel)"/>
  <rect x="92.75" y="72.75" width="742.5" height="212.5" rx="27.25" stroke="url(#panelStroke)"/>

  <path d="M890 82C994 96 1082 144 1172 202" stroke="white" stroke-opacity="0.1" stroke-width="2"/>
  <path d="M864 126C950 140 1044 182 1140 254" stroke="white" stroke-opacity="0.07" stroke-width="2"/>
  <path d="M852 170C928 180 1018 216 1106 286" stroke="white" stroke-opacity="0.05" stroke-width="2"/>

  <path d="M124 104H278" stroke="#7DD3FC" stroke-opacity="0.9" stroke-width="8" stroke-linecap="round"/>
  <path d="M124 104H222" stroke="white" stroke-opacity="0.85" stroke-width="2" stroke-linecap="round"/>

  <text x="124" y="168" fill="white" font-family="Poppins, Segoe UI, Arial, sans-serif" font-size="42" font-weight="700" letter-spacing="0.2">
    Muhammad Yazid Hazami
  </text>
  <text x="124" y="212" fill="#D7F3FF" font-family="Poppins, Segoe UI, Arial, sans-serif" font-size="21" font-weight="500">
    Software Engineer · UI/UX · Junior Developer
  </text>

  <g opacity="0.96">
    
    <rect x="320" y="236" width="86" height="34" rx="17" fill="url(#tagFill)"/>
    <rect x="320.5" y="236.5" width="85" height="33" rx="16.5" stroke="white" stroke-opacity="0.11"/>
    <g transform="translate(363 253) scale(0.72)">
      <path d="M-1.5 -15.2 C-0.6 -15.7 0.6 -15.7 1.5 -15.2 L13.2 -8.5 C14.2 -7.9 14.8 -6.8 14.8 -5.6 L14.8 -4 L0 -12.5 L-14.8 -4 L-14.8 -5.6 C-14.8 -6.8 -14.2 -7.9 -13.2 -8.5 Z" fill="#2CBA75"/>
      <path d="M-14.8 -4 L0 -12.5 L14.8 -4 L9 -0.6 L0 -5.8 L-9 -0.6 Z" fill="#2CBA75"/>
      <path d="M-14.8 -4 L-9 -0.6 L-9 7.2 L0 12.4 L0 15.5 C0 16 0.3 16 0.3 16 L-13.2 8.2 C-14.2 7.6 -14.8 6.5 -14.8 5.3 Z" fill="#073042"/>
      <path d="M14.8 -4 L9 -0.6 L9 7.2 L0 12.4 L0 15.5 C0 16 -0.3 16 -0.3 16 L13.2 8.2 C14.2 7.6 14.8 6.5 14.8 5.3 Z" fill="#4285F4"/>
      <path d="M0 -5.8 L9 -0.6 L6 1.1 L0 -2.4 L-6 1.1 L-9 -0.6 Z" fill="#1E935B"/>
      <path d="M-9 -0.6 L-6 1.1 L-6 6.1 L0 9.6 L0 12.4 L-9 7.2 Z" fill="#031E2A"/>
      <path d="M9 -0.6 L6 1.1 L6 6.1 L0 9.6 L0 12.4 L9 7.2 Z" fill="#2E63C7"/>
      <path d="M0 -2.4 L6 1.1 L6 6.1 L0 9.6 L-6 6.1 L-6 1.1 Z" fill="#D0E8FA"/>
    </g>
    
    <rect x="124" y="236" width="78" height="34" rx="17" fill="url(#tagFill)"/>
    <rect x="124.5" y="236.5" width="77" height="33" rx="16.5" stroke="white" stroke-opacity="0.11"/>
    <g transform="translate(152 253)">
      <path d="M0 -8L11 -14L22 -8V4L11 10L0 4V-8Z" fill="none" stroke="#FF6B5A" stroke-width="2" stroke-linejoin="round"/>
      <path d="M0 -8L11 -2L22 -8" fill="none" stroke="#FF6B5A" stroke-width="2" stroke-linejoin="round"/>
      <path d="M11 -2V10" stroke="#FF6B5A" stroke-width="2" stroke-linecap="round"/>
    </g>

    <rect x="222" y="236" width="78" height="34" rx="17" fill="url(#tagFill)"/>
    <rect x="222.5" y="236.5" width="77" height="33" rx="16.5" stroke="white" stroke-opacity="0.11"/>
    <g transform="translate(261 253) scale(0.14) translate(-64 -64)">
      <circle cx="64" cy="64" r="62" fill="black" stroke="white" stroke-opacity="0.25" stroke-width="4"/>
      <path d="M115 110L57.5 35H45V85H55V48L105 110H115Z" fill="white"/>
      <path d="M85 85H75V60L85 72.5V85Z" fill="white"/>
    </g>


    
  </g>
</svg>
